P3
# Ceci est un fichier .ppm
2
2
255
0
0
255
0
255
0
0
255
0
255
255
0
