P3
# Ceci est un fichier .ppm
8
8
255
0
0
255
0
0
255
0
0
255
0
0
255
0
255
0
0
255
0
0
255
0
0
255
0
0
0
255
0
0
255
0
0
255
0
0
255
0
255
0
0
255
0
0
255
0
0
255
0
0
0
255
0
0
255
0
255
0
0
255
0
255
255
0
255
255
0
255
255
0
255
255
0
0
0
255
0
0
255
0
255
0
0
255
0
255
255
0
255
255
0
255
255
0
255
255
0
0
255
0
0
255
0
255
255
0
255
255
0
255
255
0
255
255
0
255
0
0
255
0
0
0
255
0
0
255
0
255
255
0
255
255
0
255
255
0
255
255
0
255
0
0
255
0
0
255
255
0
255
255
0
255
255
0
255
255
0
255
0
0
255
0
0
255
0
0
255
0
0
255
255
0
255
255
0
255
255
0
255
255
0
255
0
0
255
0
0
255
0
0
255
0
0
